# xmcd
#
# Track frame offsets:
#	150
#	11431
#	20378
#	38790
#	48579
#	70298
#	82600
#	97888
#	112358
#	126842
#
# Disc length: 1811 seconds
#
# Revision: 0
# Processed by: cddbd v1.4PL0 Copyright (c) Steve Scherf et al.
# Submitted via: EasyCDDAExtractor 4.6.0.1
#
DISCID=7807110a
DTITLE=Pilot Lights
DYEAR=2001
DGENRE=gospel
TTITLE0=Keep on the Sunnyside
TTITLE1=Angels Rock Me to Sleep
TTITLE2=I am a Pilgrim
TTITLE3=Children Go Where I Send Thee
TTITLE4=Wayfarin' Stranger
TTITLE5=What a Friend We Have in Jesus
TTITLE6=Wade in the Water
TTITLE7=Face of God
TTITLE8=Jesus Loves Me
TTITLE9=Sailing
EXTD=
EXTT0=
EXTT1=
EXTT2=
EXTT3=
EXTT4=
EXTT5=
EXTT6=
EXTT7=
EXTT8=
EXTT9=
PLAYORDER=
